<?xml version="1.0" encoding="UTF-8"?>
<svg width="19px" height="26px" viewBox="0 0 19 26" version="1.1" xmlns="http://www.w3.org/2000/svg" xmlns:xlink="http://www.w3.org/1999/xlink">
    <!-- Generator: Sketch 47.1 (45422) - http://www.bohemiancoding.com/sketch -->
    <title>maps-and-flags</title>
    <desc>Created with Sketch.</desc>
    <defs></defs>
    <g id="Welcome" stroke="none" stroke-width="1" fill="none" fill-rule="evenodd">
        <g id="Contato" transform="translate(-981.000000, -604.000000)" fill-rule="nonzero" fill="#D0021B">
            <g id="maps-and-flags" transform="translate(981.000000, 604.000000)">
                <path d="M9.5,0 C4.26167171,0 0,4.22409109 0,9.41617554 C0,15.8597146 8.50156935,25.3192066 8.8635312,25.718754 C9.20351405,26.0940787 9.79710075,26.0934185 10.1364688,25.718754 C10.4984306,25.3192066 19,15.8597146 19,9.41617554 C18.9998975,4.22409109 14.7382771,0 9.5,0 Z M9.5,14.1537165 C6.86446688,14.1537165 4.72036165,12.0284678 4.72036165,9.41617554 C4.72036165,6.80388329 6.86451811,4.67868539 9.5,4.67868539 C12.1354819,4.67868539 14.2795871,6.80393407 14.2795871,9.41622632 C14.2795871,12.0285186 12.1354819,14.1537165 9.5,14.1537165 Z" id="Shape"></path>
            </g>
        </g>
    </g>
</svg>