<?xml version="1.0" encoding="UTF-8"?>
<svg width="24px" height="24px" viewBox="0 0 24 24" version="1.1" xmlns="http://www.w3.org/2000/svg" xmlns:xlink="http://www.w3.org/1999/xlink">
    <!-- Generator: Sketch 47.1 (45422) - http://www.bohemiancoding.com/sketch -->
    <title>auricular-phone-symbol-in-a-circle</title>
    <desc>Created with Sketch.</desc>
    <defs></defs>
    <g id="Welcome" stroke="none" stroke-width="1" fill="none" fill-rule="evenodd">
        <g id="Contato" transform="translate(-976.000000, -518.000000)" fill-rule="nonzero" fill="#4A4A4A">
            <g id="auricular-phone-symbol-in-a-circle" transform="translate(976.000000, 518.000000)">
                <path d="M12,1.5 C17.7890625,1.5 22.5,6.2109375 22.5,12 C22.5,17.7890625 17.7890625,22.5 12,22.5 C6.2109375,22.5 1.5,17.7890625 1.5,12 C1.5,6.2109375 6.2109375,1.5 12,1.5 L12,1.5 Z M12,0 C5.37304687,0 0,5.37304687 0,12 C0,18.6269531 5.37304687,24 12,24 C18.6269531,24 24,18.6269531 24,12 C24,5.37304687 18.6269531,0 12,0 L12,0 Z M18.6899531,16.0122188 L18.6225469,15.8071406 C18.4643437,15.3354844 17.9428594,14.8432969 17.4623906,14.7114375 L15.6885,14.2265625 C15.2080312,14.0962031 14.5224844,14.2719844 14.1695156,14.625 L13.5278906,15.266625 C11.1958594,14.6352656 9.36628125,12.8056875 8.736375,10.4736563 L9.378,9.83203125 C9.7295625,9.48046875 9.90534375,8.79492188 9.77498437,8.313 L9.29151562,6.5390625 C9.16115625,6.05859375 8.66601562,5.53710938 8.19435937,5.37890625 L7.9921875,5.3115 C7.51903125,5.15329688 6.84375,5.31295313 6.4921875,5.66601563 L5.53125,6.62695313 C5.359875,6.796875 5.25,7.28465625 5.25,7.28615625 C5.21775,10.3359844 6.41310937,13.2729844 8.56935937,15.4306875 C10.71975,17.5810781 13.6465312,18.7749844 16.6860469,18.7485469 C16.7021719,18.7485469 17.204625,18.641625 17.376,18.4702031 L18.3369375,17.5092656 C18.6885,17.1591563 18.8466562,16.483875 18.6899531,16.0122188 Z" id="Shape"></path>
            </g>
        </g>
    </g>
</svg>