<?xml version="1.0" encoding="UTF-8"?>
<svg width="26px" height="26px" viewBox="0 0 26 26" version="1.1" xmlns="http://www.w3.org/2000/svg" xmlns:xlink="http://www.w3.org/1999/xlink">
    <!-- Generator: Sketch 47.1 (45422) - http://www.bohemiancoding.com/sketch -->
    <title>if_WhatsApp_1298775</title>
    <desc>Created with Sketch.</desc>
    <defs></defs>
    <g id="Welcome" stroke="none" stroke-width="1" fill="none" fill-rule="evenodd">
        <g id="Contato" transform="translate(-974.000000, -396.000000)">
            <g id="if_WhatsApp_1298775" transform="translate(974.000000, 396.000000)">
                <rect id="Rectangle-path" x="0" y="0" width="26" height="26"></rect>
                <path d="M9.36690625,6.60339062 C9.11482813,5.99970312 8.9236875,5.97675 8.5418125,5.9613125 C8.4118125,5.95379687 8.26698438,5.94628125 8.1063125,5.94628125 C7.60946875,5.94628125 7.09007813,6.09151562 6.77665625,6.41245312 C6.39478125,6.80225 5.44720313,7.71164062 5.44720313,9.57632812 C5.44720313,11.4412187 6.807125,13.2447656 6.99054688,13.49725 C7.1816875,13.749125 9.6419375,17.6316562 13.4621094,19.214 C16.4494688,20.4520469 17.3359063,20.3372812 18.0157656,20.19225 C19.0090469,19.9783594 20.2544063,19.2442656 20.5678281,18.3580312 C20.8810469,17.4713906 20.8810469,16.71475 20.7892344,16.5542812 C20.697625,16.3938125 20.4453438,16.3024062 20.0634688,16.1110625 C19.6815938,15.9199219 17.8248281,15.0028125 17.4734219,14.8805312 C17.1295313,14.7507344 16.8010781,14.7966406 16.5414844,15.1634844 C16.1746406,15.6755625 15.8157188,16.1953594 15.52525,16.5085781 C15.296125,16.7531406 14.9215625,16.7838125 14.6083438,16.6538125 C14.1880781,16.4783125 13.0115781,16.0651562 11.5598438,14.7736875 C10.4365625,13.7726875 9.67260938,12.527125 9.45120313,12.1525625 C9.22959375,11.7704844 9.42825,11.5486719 9.60395313,11.3425 C9.79509375,11.1054531 9.9783125,10.9374687 10.16925,10.7156562 C10.3603906,10.4940469 10.4672344,10.3794844 10.5895156,10.1194844 C10.7195156,9.86740625 10.6277031,9.60740625 10.5360938,9.41626562 C10.4442813,9.22471875 9.68032813,7.35982812 9.36690625,6.60339062 Z M12.9961406,0 C5.82948437,0 0,5.83110937 0,12.9997969 C0,15.8427344 0.91690625,18.4795 2.47548437,20.6194219 L0.8555625,25.4495312 L5.8524375,23.8525625 C7.90765625,25.2128906 10.3601875,26 13.0038594,26 C20.1705156,26 26,20.1684844 26,13.0002031 C26,5.83151562 20.1705156,0.00040625 13.0038594,0.00040625 L12.9963437,0.00040625 L12.9963437,0 L12.9961406,0 Z" id="WhatsApp_1_" fill="#67C15E"></path>
            </g>
        </g>
    </g>
</svg>